%TF.GenerationSoftware,KiCad,Pcbnew,8.0.7*%
%TF.CreationDate,2025-04-04T13:59:02+05:30*%
%TF.ProjectId,Arduino Nano IO Shield,41726475-696e-46f2-904e-616e6f20494f,rev?*%
%TF.SameCoordinates,Original*%
%TF.FileFunction,Copper,L2,Bot*%
%TF.FilePolarity,Positive*%
%FSLAX46Y46*%
G04 Gerber Fmt 4.6, Leading zero omitted, Abs format (unit mm)*
G04 Created by KiCad (PCBNEW 8.0.7) date 2025-04-04 13:59:02*
%MOMM*%
%LPD*%
G01*
G04 APERTURE LIST*
%TA.AperFunction,ComponentPad*%
%ADD10R,1.600000X1.600000*%
%TD*%
%TA.AperFunction,ComponentPad*%
%ADD11C,1.600000*%
%TD*%
%TA.AperFunction,ComponentPad*%
%ADD12R,3.000000X3.000000*%
%TD*%
%TA.AperFunction,ComponentPad*%
%ADD13C,3.000000*%
%TD*%
%TA.AperFunction,ComponentPad*%
%ADD14C,1.500000*%
%TD*%
%TA.AperFunction,ComponentPad*%
%ADD15O,1.700000X1.700000*%
%TD*%
%TA.AperFunction,ComponentPad*%
%ADD16R,1.700000X1.700000*%
%TD*%
%TA.AperFunction,ComponentPad*%
%ADD17O,2.100000X1.000000*%
%TD*%
%TA.AperFunction,ComponentPad*%
%ADD18O,1.800000X1.000000*%
%TD*%
%TA.AperFunction,ComponentPad*%
%ADD19R,2.000000X2.000000*%
%TD*%
%TA.AperFunction,ComponentPad*%
%ADD20C,2.000000*%
%TD*%
%TA.AperFunction,ViaPad*%
%ADD21C,1.000000*%
%TD*%
%TA.AperFunction,ViaPad*%
%ADD22C,0.600000*%
%TD*%
%TA.AperFunction,Conductor*%
%ADD23C,0.400000*%
%TD*%
%TA.AperFunction,Conductor*%
%ADD24C,0.200000*%
%TD*%
%TA.AperFunction,Conductor*%
%ADD25C,0.500000*%
%TD*%
G04 APERTURE END LIST*
D10*
%TO.P,C9,1*%
%TO.N,VCC*%
X144154888Y-101040000D03*
D11*
%TO.P,C9,2*%
%TO.N,GND*%
X146654888Y-101040000D03*
%TD*%
D12*
%TO.P,J4,1,Pin_1*%
%TO.N,SDA*%
X149500000Y-73150000D03*
D13*
%TO.P,J4,2,Pin_2*%
%TO.N,SCL*%
X144420000Y-73150000D03*
%TO.P,J4,3,Pin_3*%
%TO.N,VCC*%
X139340000Y-73150000D03*
%TO.P,J4,4,Pin_4*%
%TO.N,GND*%
X134260000Y-73150000D03*
%TO.P,J4,5,Pin_5*%
%TO.N,RX*%
X129180000Y-73150000D03*
%TO.P,J4,6,Pin_6*%
%TO.N,TX*%
X124100000Y-73150000D03*
%TD*%
D14*
%TO.P,Y1,1,1*%
%TO.N,Net-(U2-XI)*%
X159140000Y-84530000D03*
%TO.P,Y1,2,2*%
%TO.N,Net-(U2-XO)*%
X154240000Y-84530000D03*
%TD*%
D12*
%TO.P,J6,1,Pin_1*%
%TO.N,VCC*%
X124030000Y-118420000D03*
D13*
%TO.P,J6,2,Pin_2*%
%TO.N,GND*%
X129110000Y-118420000D03*
%TD*%
D12*
%TO.P,J10,1,Pin_1*%
%TO.N,D5*%
X139300000Y-118420000D03*
D13*
%TO.P,J10,2,Pin_2*%
%TO.N,D6*%
X144380000Y-118420000D03*
%TO.P,J10,3,Pin_3*%
%TO.N,D7*%
X149460000Y-118420000D03*
%TD*%
D15*
%TO.P,J1,6,Pin_6*%
%TO.N,D12*%
X137485000Y-100245000D03*
%TO.P,J1,5,Pin_5*%
%TO.N,VCC*%
X137485000Y-102785000D03*
%TO.P,J1,4,Pin_4*%
%TO.N,D13*%
X134945000Y-100245000D03*
%TO.P,J1,3,Pin_3*%
%TO.N,D11*%
X134945000Y-102785000D03*
%TO.P,J1,2,Pin_2*%
%TO.N,RESET*%
X132405000Y-100245000D03*
D16*
%TO.P,J1,1,Pin_1*%
%TO.N,GND*%
X132405000Y-102785000D03*
%TD*%
D17*
%TO.P,J2,S1,SHIELD*%
%TO.N,GND*%
X171255000Y-100280000D03*
D18*
X175435000Y-100280000D03*
D17*
X171255000Y-91640000D03*
D18*
X175435000Y-91640000D03*
%TD*%
D12*
%TO.P,J11,1,Pin_1*%
%TO.N,D8*%
X154900000Y-118420000D03*
D13*
%TO.P,J11,2,Pin_2*%
%TO.N,D9*%
X159980000Y-118420000D03*
%TO.P,J11,3,Pin_3*%
%TO.N,D10*%
X165060000Y-118420000D03*
%TD*%
D12*
%TO.P,J8,1,Pin_1*%
%TO.N,A3*%
X172040000Y-82050000D03*
D13*
%TO.P,J8,2,Pin_2*%
%TO.N,A6*%
X172040000Y-76970000D03*
%TO.P,J8,3,Pin_3*%
%TO.N,A7*%
X172040000Y-71890000D03*
%TD*%
D12*
%TO.P,J3,1,Pin_1*%
%TO.N,Net-(D1-1)*%
X125340000Y-106300000D03*
D13*
%TO.P,J3,2,Pin_2*%
%TO.N,Net-(D1-2)*%
X125340000Y-111380000D03*
%TD*%
D19*
%TO.P,C8,1*%
%TO.N,+12V*%
X148620000Y-111417677D03*
D20*
%TO.P,C8,2*%
%TO.N,GND*%
X148620000Y-106417677D03*
%TD*%
D12*
%TO.P,J12,1,Pin_1*%
%TO.N,D11*%
X172020000Y-119710000D03*
D13*
%TO.P,J12,2,Pin_2*%
%TO.N,D12*%
X172020000Y-114630000D03*
%TO.P,J12,3,Pin_3*%
%TO.N,D13*%
X172020000Y-109550000D03*
%TD*%
D12*
%TO.P,J9,1,Pin_1*%
%TO.N,D2*%
X125340000Y-90690000D03*
D13*
%TO.P,J9,2,Pin_2*%
%TO.N,D3*%
X125340000Y-95770000D03*
%TO.P,J9,3,Pin_3*%
%TO.N,D4*%
X125340000Y-100850000D03*
%TD*%
D12*
%TO.P,J5,1,Pin_1*%
%TO.N,VCC*%
X125340000Y-80170000D03*
D13*
%TO.P,J5,2,Pin_2*%
%TO.N,GND*%
X125340000Y-85250000D03*
%TD*%
D14*
%TO.P,Y2,1,1*%
%TO.N,Net-(U1-XTAL1{slash}PB6)*%
X136070000Y-82990000D03*
%TO.P,Y2,2,2*%
%TO.N,Net-(U1-XTAL2{slash}PB7)*%
X136070000Y-87890000D03*
%TD*%
D12*
%TO.P,J7,1,Pin_1*%
%TO.N,A0*%
X165130000Y-73150000D03*
D13*
%TO.P,J7,2,Pin_2*%
%TO.N,A1*%
X160050000Y-73150000D03*
%TO.P,J7,3,Pin_3*%
%TO.N,A2*%
X154970000Y-73150000D03*
%TD*%
D21*
%TO.N,D11*%
X148272077Y-95841400D03*
D22*
%TO.N,GND*%
X158010206Y-97975936D03*
X155970000Y-97860000D03*
D21*
%TO.N,Net-(U2-UD-)*%
X167370000Y-95850000D03*
%TO.N,VCC*%
X141730000Y-81000000D03*
%TO.N,SCL*%
X144930000Y-81590000D03*
D22*
%TO.N,A6*%
X146950002Y-91380000D03*
%TO.N,A0*%
X147639998Y-86860000D03*
%TO.N,A7*%
X146790000Y-87520000D03*
%TO.N,A1*%
X149200000Y-85440000D03*
D21*
%TO.N,D13*%
X151900000Y-92910000D03*
%TO.N,D12*%
X151320000Y-94200000D03*
%TO.N,D10*%
X147376397Y-96640000D03*
%TO.N,D9*%
X145210000Y-95830000D03*
%TO.N,D8*%
X144360000Y-96770000D03*
%TO.N,D7*%
X143120000Y-96340000D03*
%TO.N,D6*%
X141930000Y-96110000D03*
%TO.N,D5*%
X140770000Y-95700000D03*
%TO.N,Net-(U1-XTAL1{slash}PB6)*%
X138710000Y-91650000D03*
%TO.N,Net-(U1-XTAL2{slash}PB7)*%
X137300000Y-92580000D03*
%TO.N,GND*%
X130310000Y-92350000D03*
X135820000Y-92570000D03*
D22*
%TO.N,D2*%
X139930000Y-85510000D03*
D21*
%TO.N,GND*%
X150660000Y-96720000D03*
D22*
X145940000Y-88460000D03*
X143680000Y-90720000D03*
D21*
X131710000Y-78750000D03*
D22*
%TO.N,RESET*%
X144270000Y-87230000D03*
D21*
X138180000Y-93820000D03*
D22*
%TO.N,Net-(U2-~{DTR})*%
X144280000Y-91450000D03*
X148700735Y-94409265D03*
X143080000Y-91460000D03*
D21*
X138220000Y-95070000D03*
D22*
%TO.N,VCC*%
X142136588Y-90034882D03*
D21*
%TO.N,Net-(D4-A)*%
X169010000Y-93490000D03*
%TO.N,VCC*%
X140470000Y-112910000D03*
%TO.N,Net-(D4-A)*%
X169060000Y-91040000D03*
%TO.N,VCC*%
X140420000Y-102940000D03*
D22*
%TO.N,D13*%
X142550000Y-92720000D03*
D21*
%TO.N,Net-(U2-UD+)*%
X161590000Y-93640000D03*
X169030000Y-95120000D03*
%TO.N,Net-(U2-UD-)*%
X160980000Y-92360000D03*
%TO.N,RX*%
X162000000Y-88410000D03*
X163860000Y-100820000D03*
D22*
X145040315Y-91698844D03*
X145890000Y-90760000D03*
%TO.N,TX*%
X144719265Y-90529265D03*
D21*
X165340000Y-85010000D03*
X164650000Y-97770000D03*
%TD*%
D23*
%TO.N,D8*%
X154890000Y-118410000D02*
X154900000Y-118420000D01*
X154890000Y-106940000D02*
X154890000Y-118410000D01*
X144360000Y-96770000D02*
X144720000Y-96770000D01*
X144720000Y-96770000D02*
X154890000Y-106940000D01*
%TO.N,D10*%
X160540000Y-113900000D02*
X165060000Y-118420000D01*
X160540000Y-109720000D02*
X160540000Y-113900000D01*
X147460000Y-96640000D02*
X160540000Y-109720000D01*
X147376397Y-96640000D02*
X147460000Y-96640000D01*
%TO.N,D9*%
X156950000Y-107530000D02*
X156950000Y-115390000D01*
X145250000Y-95830000D02*
X156950000Y-107530000D01*
X145210000Y-95830000D02*
X145250000Y-95830000D01*
X156950000Y-115390000D02*
X159980000Y-118420000D01*
%TO.N,D6*%
X144350000Y-118390000D02*
X144380000Y-118420000D01*
X141470000Y-105220000D02*
X144350000Y-108100000D01*
X144350000Y-108100000D02*
X144350000Y-118390000D01*
X141470000Y-96570000D02*
X141470000Y-105220000D01*
X141930000Y-96110000D02*
X141470000Y-96570000D01*
%TO.N,D7*%
X146400000Y-115360000D02*
X149460000Y-118420000D01*
X146400000Y-108770000D02*
X146400000Y-115360000D01*
X142390000Y-104760000D02*
X146400000Y-108770000D01*
X143120000Y-96340000D02*
X142390000Y-97070000D01*
X142390000Y-97070000D02*
X142390000Y-104760000D01*
D24*
%TO.N,VCC*%
X141700000Y-89598294D02*
X142136588Y-90034882D01*
X141700000Y-81030000D02*
X141700000Y-89598294D01*
D23*
%TO.N,D2*%
X128800000Y-90690000D02*
X125340000Y-90690000D01*
X133980000Y-85510000D02*
X128800000Y-90690000D01*
X139930000Y-85510000D02*
X133980000Y-85510000D01*
D25*
%TO.N,VCC*%
X140420000Y-112860000D02*
X140420000Y-102940000D01*
X140470000Y-112910000D02*
X140420000Y-112860000D01*
D24*
%TO.N,D11*%
X168750000Y-122980000D02*
X172020000Y-119710000D01*
X135760000Y-122980000D02*
X168750000Y-122980000D01*
X134945000Y-122165000D02*
X135760000Y-122980000D01*
X134945000Y-102785000D02*
X134945000Y-122165000D01*
%TO.N,D13*%
X138590000Y-96680000D02*
X135970000Y-96680000D01*
X135970000Y-96680000D02*
X134945000Y-97705000D01*
X142550000Y-92720000D02*
X138590000Y-96680000D01*
X134945000Y-97705000D02*
X134945000Y-100245000D01*
D23*
%TO.N,D12*%
X164890000Y-96600000D02*
X153700000Y-96600000D01*
X165590000Y-97300000D02*
X164890000Y-96600000D01*
X165590000Y-110530000D02*
X165590000Y-97300000D01*
X169690000Y-114630000D02*
X165590000Y-110530000D01*
X172020000Y-114630000D02*
X169690000Y-114630000D01*
X153700000Y-96600000D02*
X151320000Y-94220000D01*
%TO.N,D13*%
X167440000Y-109550000D02*
X172020000Y-109550000D01*
X166290000Y-108400000D02*
X167440000Y-109550000D01*
X165310000Y-95880000D02*
X166290000Y-96860000D01*
X154880000Y-95880000D02*
X165310000Y-95880000D01*
X151910000Y-92910000D02*
X154880000Y-95880000D01*
X166290000Y-96860000D02*
X166290000Y-108400000D01*
%TO.N,Net-(U1-XTAL1{slash}PB6)*%
X140690000Y-85071471D02*
X138608529Y-82990000D01*
X138608529Y-82990000D02*
X136070000Y-82990000D01*
X138710000Y-91650000D02*
X140690000Y-89670000D01*
X140690000Y-89670000D02*
X140690000Y-85071471D01*
D24*
%TO.N,RX*%
X162000000Y-88560000D02*
X159990000Y-90570000D01*
X162000000Y-88410000D02*
X162000000Y-88560000D01*
X146080000Y-90570000D02*
X145890000Y-90760000D01*
X159990000Y-90570000D02*
X146080000Y-90570000D01*
%TO.N,TX*%
X158955735Y-89204265D02*
X163150000Y-85010000D01*
X163150000Y-85010000D02*
X165340000Y-85010000D01*
X146044265Y-89204265D02*
X158955735Y-89204265D01*
X144719265Y-90529265D02*
X146044265Y-89204265D01*
D23*
%TO.N,A1*%
X158980000Y-79800000D02*
X160050000Y-78730000D01*
X154840000Y-79800000D02*
X158980000Y-79800000D01*
X160050000Y-78730000D02*
X160050000Y-73150000D01*
X149200000Y-85440000D02*
X154840000Y-79800000D01*
%TO.N,A0*%
X148820000Y-86860000D02*
X147639998Y-86860000D01*
X154560000Y-81120000D02*
X148820000Y-86860000D01*
X160860000Y-81120000D02*
X154560000Y-81120000D01*
X165130000Y-76850000D02*
X160860000Y-81120000D01*
X165130000Y-73150000D02*
X165130000Y-76850000D01*
%TO.N,A6*%
X146960002Y-91390000D02*
X146950002Y-91380000D01*
X167300000Y-88380000D02*
X164290000Y-91390000D01*
X167300000Y-79280000D02*
X167300000Y-88380000D01*
X164290000Y-91390000D02*
X146960002Y-91390000D01*
X172040000Y-76970000D02*
X169610000Y-76970000D01*
X169610000Y-76970000D02*
X167300000Y-79280000D01*
D24*
%TO.N,Net-(U2-~{DTR})*%
X139093740Y-95070000D02*
X142703740Y-91460000D01*
X142703740Y-91460000D02*
X143080000Y-91460000D01*
X138220000Y-95070000D02*
X139093740Y-95070000D01*
%TO.N,RESET*%
X144270000Y-88750000D02*
X144270000Y-87230000D01*
X138180000Y-93820000D02*
X139200000Y-93820000D01*
X139200000Y-93820000D02*
X144270000Y-88750000D01*
%TO.N,TX*%
X145760000Y-91570000D02*
X144719265Y-90529265D01*
X145760000Y-92750000D02*
X145760000Y-91570000D01*
X146100000Y-93090000D02*
X145760000Y-92750000D01*
X149020000Y-93090000D02*
X146100000Y-93090000D01*
X153130000Y-97200000D02*
X149020000Y-93090000D01*
X164650000Y-97770000D02*
X164080000Y-97200000D01*
X164080000Y-97200000D02*
X153130000Y-97200000D01*
%TO.N,RX*%
X145040315Y-93090315D02*
X145040315Y-91698844D01*
X148800000Y-93660000D02*
X145610000Y-93660000D01*
X162540000Y-99500000D02*
X154640000Y-99500000D01*
X145610000Y-93660000D02*
X145040315Y-93090315D01*
X163860000Y-100820000D02*
X162540000Y-99500000D01*
X154640000Y-99500000D02*
X148800000Y-93660000D01*
%TO.N,Net-(U2-~{DTR})*%
X145169265Y-94409265D02*
X144250000Y-93490000D01*
X144250000Y-91480000D02*
X144280000Y-91450000D01*
X148700735Y-94409265D02*
X145169265Y-94409265D01*
X144250000Y-93490000D02*
X144250000Y-91480000D01*
D23*
%TO.N,A7*%
X161420000Y-82510000D02*
X172040000Y-71890000D01*
X154190000Y-82510000D02*
X161420000Y-82510000D01*
X146830000Y-87560000D02*
X149140000Y-87560000D01*
X146790000Y-87520000D02*
X146830000Y-87560000D01*
X149140000Y-87560000D02*
X154190000Y-82510000D01*
D24*
%TO.N,GND*%
X144750000Y-95030000D02*
X143680000Y-93960000D01*
X148911371Y-95030000D02*
X144750000Y-95030000D01*
X150660000Y-96720000D02*
X150601371Y-96720000D01*
X150601371Y-96720000D02*
X148911371Y-95030000D01*
X143680000Y-93960000D02*
X143680000Y-90720000D01*
D23*
%TO.N,D11*%
X171690000Y-119260000D02*
X172020000Y-119260000D01*
X148272077Y-95841400D02*
X148272077Y-95842077D01*
X148272077Y-95842077D02*
X171690000Y-119260000D01*
D24*
%TO.N,D6*%
X141930000Y-96283082D02*
X141990000Y-96343082D01*
X141930000Y-96110000D02*
X141930000Y-96283082D01*
D23*
%TO.N,D5*%
X140770000Y-95700000D02*
X139410000Y-97060000D01*
X139410000Y-118310000D02*
X139300000Y-118420000D01*
D24*
%TO.N,Net-(U2-UD-)*%
X166800000Y-95280000D02*
X167370000Y-95850000D01*
X161030000Y-95280000D02*
X166800000Y-95280000D01*
X160720000Y-94970000D02*
X161030000Y-95280000D01*
X160720000Y-92620000D02*
X160720000Y-94970000D01*
X160980000Y-92360000D02*
X160720000Y-92620000D01*
%TO.N,Net-(U2-UD+)*%
X167860000Y-93950000D02*
X169030000Y-95120000D01*
X161590000Y-93640000D02*
X161900000Y-93950000D01*
X161900000Y-93950000D02*
X167860000Y-93950000D01*
%TO.N,GND*%
X158010206Y-97975936D02*
X157894270Y-97860000D01*
X157894270Y-97860000D02*
X155970000Y-97860000D01*
%TO.N,Net-(D4-A)*%
X169060000Y-93440000D02*
X169060000Y-91040000D01*
X169010000Y-93490000D02*
X169060000Y-93440000D01*
%TO.N,D12*%
X151320000Y-94200000D02*
X151320000Y-94220000D01*
%TO.N,GND*%
X145940000Y-88460000D02*
X143680000Y-90720000D01*
D23*
%TO.N,Net-(U1-XTAL2{slash}PB7)*%
X137290000Y-92580000D02*
X136070000Y-91360000D01*
X137300000Y-92580000D02*
X137290000Y-92580000D01*
X136070000Y-91360000D02*
X136070000Y-87890000D01*
%TO.N,GND*%
X130430000Y-92470000D02*
X130310000Y-92350000D01*
X135820000Y-92570000D02*
X135720000Y-92470000D01*
X135720000Y-92470000D02*
X130430000Y-92470000D01*
%TO.N,SCL*%
X144420000Y-81080000D02*
X144420000Y-73150000D01*
X144930000Y-81590000D02*
X144420000Y-81080000D01*
D25*
%TO.N,GND*%
X131710000Y-78750000D02*
X134260000Y-76200000D01*
X134260000Y-76200000D02*
X134260000Y-73150000D01*
D24*
%TO.N,D13*%
X151900000Y-92910000D02*
X151910000Y-92910000D01*
%TO.N,D11*%
X172020000Y-119260000D02*
X172020000Y-119710000D01*
D25*
%TO.N,VCC*%
X132320000Y-80170000D02*
X125340000Y-80170000D01*
%TO.N,GND*%
X175435000Y-100280000D02*
X171255000Y-100280000D01*
X175435000Y-91640000D02*
X171255000Y-91640000D01*
%TO.N,VCC*%
X132320000Y-80170000D02*
X139340000Y-73150000D01*
D23*
%TO.N,D5*%
X139410000Y-97060000D02*
X139410000Y-118310000D01*
%TD*%
M02*
