%TF.GenerationSoftware,KiCad,Pcbnew,10.0.3*%
%TF.CreationDate,2026-07-08T13:23:05+05:30*%
%TF.ProjectId,SolderingIron,536f6c64-6572-4696-9e67-49726f6e2e6b,rev?*%
%TF.SameCoordinates,Original*%
%TF.FileFunction,Copper,L1,Top*%
%TF.FilePolarity,Positive*%
%FSLAX46Y46*%
G04 Gerber Fmt 4.6, Leading zero omitted, Abs format (unit mm)*
G04 Created by KiCad (PCBNEW 10.0.3) date 2026-07-08 13:23:05*
%MOMM*%
%LPD*%
G01*
G04 APERTURE LIST*
G04 Aperture macros list*
%AMRoundRect*
0 Rectangle with rounded corners*
0 $1 Rounding radius*
0 $2 $3 $4 $5 $6 $7 $8 $9 X,Y pos of 4 corners*
0 Add a 4 corners polygon primitive as box body*
4,1,4,$2,$3,$4,$5,$6,$7,$8,$9,$2,$3,0*
0 Add four circle primitives for the rounded corners*
1,1,$1+$1,$2,$3*
1,1,$1+$1,$4,$5*
1,1,$1+$1,$6,$7*
1,1,$1+$1,$8,$9*
0 Add four rect primitives between the rounded corners*
20,1,$1+$1,$2,$3,$4,$5,0*
20,1,$1+$1,$4,$5,$6,$7,0*
20,1,$1+$1,$6,$7,$8,$9,0*
20,1,$1+$1,$8,$9,$2,$3,0*%
G04 Aperture macros list end*
%TA.AperFunction,ComponentPad*%
%ADD10C,1.600000*%
%TD*%
%TA.AperFunction,ComponentPad*%
%ADD11RoundRect,0.250000X-0.550000X0.550000X-0.550000X-0.550000X0.550000X-0.550000X0.550000X0.550000X0*%
%TD*%
%TA.AperFunction,ComponentPad*%
%ADD12R,1.800000X1.800000*%
%TD*%
%TA.AperFunction,ComponentPad*%
%ADD13C,1.800000*%
%TD*%
%TA.AperFunction,ComponentPad*%
%ADD14RoundRect,0.249999X0.850001X0.850001X-0.850001X0.850001X-0.850001X-0.850001X0.850001X-0.850001X0*%
%TD*%
%TA.AperFunction,ComponentPad*%
%ADD15C,2.200000*%
%TD*%
%TA.AperFunction,Conductor*%
%ADD16C,0.700000*%
%TD*%
G04 APERTURE END LIST*
D10*
%TO.P,J1,3,Pin_3_3*%
%TO.N,GND*%
X97000000Y-61600000D03*
%TO.P,J1,2,Pin_2_2*%
%TO.N,Neutral*%
X97000000Y-58000000D03*
D11*
%TO.P,J1,1,Pin_1_1*%
%TO.N,Live*%
X97000000Y-54400000D03*
%TD*%
%TO.P,J2,1,Pin_1_1*%
%TO.N,Live1*%
X128000000Y-54400000D03*
D10*
%TO.P,J2,2,Pin_2_2*%
%TO.N,Neutral*%
X128000000Y-58000000D03*
%TO.P,J2,3,Pin_3_3*%
%TO.N,GND*%
X128000000Y-61600000D03*
%TD*%
D12*
%TO.P,D2,1,K_1*%
%TO.N,Live*%
X103230000Y-54500000D03*
D13*
%TO.P,D2,2,A_2*%
%TO.N,Net-(D2-A)*%
X105770000Y-54500000D03*
%TD*%
D14*
%TO.P,D1,1,K_1*%
%TO.N,Live1*%
X121080000Y-53500000D03*
D15*
%TO.P,D1,2,A_2*%
%TO.N,Live*%
X110920000Y-53500000D03*
%TD*%
D10*
%TO.P,150K-ohm1,1*%
%TO.N,Net-(D2-A)*%
X109190000Y-59000000D03*
%TO.P,150K-ohm1,2*%
%TO.N,Neutral*%
X116810000Y-59000000D03*
%TD*%
%TO.N,Live*%
D16*
X103230000Y-51500000D02*
X103230000Y-54500000D01*
X108920000Y-51500000D02*
X103230000Y-51500000D01*
X110920000Y-53500000D02*
X108920000Y-51500000D01*
%TO.N,Neutral*%
X114310000Y-61500000D02*
X116810000Y-59000000D01*
X100500000Y-61500000D02*
X114310000Y-61500000D01*
X97000000Y-58000000D02*
X100500000Y-61500000D01*
X127000000Y-59000000D02*
X128000000Y-58000000D01*
X116810000Y-59000000D02*
X127000000Y-59000000D01*
%TO.N,Live1*%
X127100000Y-53500000D02*
X128000000Y-54400000D01*
X121080000Y-53500000D02*
X127100000Y-53500000D01*
%TO.N,Net-(D2-A)*%
X105770000Y-55580000D02*
X109190000Y-59000000D01*
X105770000Y-54500000D02*
X105770000Y-55580000D01*
%TO.N,Live*%
X103130000Y-54400000D02*
X103230000Y-54500000D01*
X97000000Y-54400000D02*
X103130000Y-54400000D01*
%TO.N,GND*%
X98900000Y-63500000D02*
X126100000Y-63500000D01*
X126100000Y-63500000D02*
X128000000Y-61600000D01*
X97000000Y-61600000D02*
X98900000Y-63500000D01*
%TD*%
M02*
